<svg width="33" height="32" viewBox="0 0 33 32" fill="none" xmlns="http://www.w3.org/2000/svg">
    <path d="M16.6667 21C19.4281 21 21.6667 18.7614 21.6667 16C21.6667 13.2386 19.4281 11 16.6667 11C13.9053 11 11.6667 13.2386 11.6667 16C11.6667 18.7614 13.9053 21 16.6667 21Z" stroke="#FA41FE" stroke-width="2" stroke-miterlimit="10"/>
    <path d="M22.1667 4.5H11.1667C7.85298 4.5 5.16669 7.18629 5.16669 10.5V21.5C5.16669 24.8137 7.85298 27.5 11.1667 27.5H22.1667C25.4804 27.5 28.1667 24.8137 28.1667 21.5V10.5C28.1667 7.18629 25.4804 4.5 22.1667 4.5Z" stroke="#FA41FE" stroke-width="2" stroke-linecap="round" stroke-linejoin="round"/>
    <path d="M23.1667 11C23.9951 11 24.6667 10.3284 24.6667 9.5C24.6667 8.67157 23.9951 8 23.1667 8C22.3383 8 21.6667 8.67157 21.6667 9.5C21.6667 10.3284 22.3383 11 23.1667 11Z" fill="#FA41FE"/>
</svg>