<svg width="33" height="32" viewBox="0 0 33 32" fill="none" xmlns="http://www.w3.org/2000/svg">
    <path d="M20.6667 16L14.6667 12V20L20.6667 16Z" stroke="#F40000" stroke-width="2" stroke-linecap="round" stroke-linejoin="round"/>
    <path d="M3.66669 16C3.66669 19.725 4.05419 21.9 4.34169 23.025C4.42096 23.3302 4.57087 23.6126 4.77931 23.8493C4.98775 24.0859 5.2489 24.2703 5.54169 24.3875C9.72919 25.9875 16.6667 25.95 16.6667 25.95C16.6667 25.95 23.6042 25.9875 27.7917 24.3875C28.0845 24.2703 28.3456 24.0859 28.5541 23.8493C28.7625 23.6126 28.9124 23.3302 28.9917 23.025C29.2792 21.9 29.6667 19.725 29.6667 16C29.6667 12.275 29.2792 10.1 28.9917 8.975C28.9124 8.66975 28.7625 8.38741 28.5541 8.15074C28.3456 7.91407 28.0845 7.7297 27.7917 7.6125C23.6042 6.0125 16.6667 6.05 16.6667 6.05C16.6667 6.05 9.72919 6.0125 5.54169 7.6125C5.2489 7.7297 4.98775 7.91407 4.77931 8.15074C4.57087 8.38741 4.42096 8.66975 4.34169 8.975C4.05419 10.1 3.66669 12.275 3.66669 16Z" stroke="#F40000" stroke-width="2" stroke-linecap="round" stroke-linejoin="round"/>
</svg>